<?xml version="1.0" standalone="no"?>
<!DOCTYPE svg PUBLIC "-//W3C//DTD SVG 20010904//EN"
 "http://www.w3.org/TR/2001/REC-SVG-20010904/DTD/svg10.dtd">
<svg version="1.0" xmlns="http://www.w3.org/2000/svg"
 width="16.000000pt" height="16.000000pt" viewBox="0 0 16.000000 16.000000"
 preserveAspectRatio="xMidYMid meet">
<metadata>
Created by potrace 1.11, written by Peter Selinger 2001-2013
</metadata>
<g transform="translate(0.000000,16.000000) scale(0.005614,-0.005614)"
fill="#000000" stroke="none">
<path d="M1207 2684 c-1 -1 -31 -4 -67 -8 -336 -31 -639 -195 -830 -448 -117
-155 -207 -356 -235 -528 -3 -19 -8 -42 -10 -50 -2 -8 -7 -46 -11 -85 -3 -38
-8 -78 -10 -87 -1 -10 1 -18 6 -18 5 0 8 8 8 18 -4 56 46 266 90 379 69 180
217 379 372 499 160 125 307 190 535 240 212 46 569 10 749 -77 22 -10 43 -19
47 -19 14 0 181 -99 230 -137 27 -20 59 -38 71 -40 19 -3 16 4 -22 40 -167
160 -433 278 -702 312 -52 7 -216 14 -221 9z"/>
<path d="M1045 2413 c-60 -14 -117 -58 -144 -111 -20 -39 -21 -115 -2 -158 33
-73 114 -124 196 -124 43 1 116 36 148 73 101 118 27 303 -128 320 -27 3 -59
3 -70 0z"/>
<path d="M767 2201 c-106 -126 -222 -364 -251 -516 -4 -16 -9 -41 -12 -55 -17
-86 -23 -294 -11 -375 4 -22 9 -56 13 -75 10 -62 64 -212 102 -284 79 -150
205 -301 342 -411 38 -30 71 -55 73 -55 3 0 -4 30 -13 68 -17 60 -22 91 -35
187 -8 56 -5 240 4 295 41 242 141 430 326 611 236 232 571 377 978 424 26 3
68 7 93 10 67 8 330 8 389 0 69 -10 56 -1 -55 33 -431 136 -816 143 -1149 21
-231 -85 -445 -221 -643 -411 -10 -10 -20 -18 -23 -18 -16 0 -82 82 -101 127
-31 70 -36 92 -39 195 -3 87 17 210 38 236 22 27 -2 21 -26 -7z"/>
<path d="M2354 1971 c10 -15 11 -153 2 -211 -22 -142 -60 -250 -123 -346 -34
-52 -34 -52 -126 -75 -293 -72 -459 -170 -567 -335 -48 -73 -65 -111 -146
-319 -70 -180 -131 -263 -233 -319 -56 -30 -85 -36 -176 -37 -177 0 -322 56
-575 224 -136 89 -142 86 -30 -19 199 -185 422 -304 654 -350 346 -68 782 54
1047 291 213 191 361 487 396 790 9 80 9 267 0 330 -15 109 -96 367 -119 382
-7 3 -8 1 -4 -6z"/>
<path d="M1845 1665 c-184 -90 -287 -241 -294 -430 l-3 -70 32 40 c43 55 93
99 176 155 88 60 132 104 152 150 16 40 29 190 16 190 -5 0 -40 -16 -79 -35z"/>
<path d="M1300 1333 c0 -5 -21 -30 -45 -58 -104 -116 -170 -308 -159 -465 5
-79 42 -203 77 -260 l21 -34 11 54 c19 91 33 128 112 285 82 166 93 214 67
312 -19 74 -83 199 -84 166z"/>
<path d="M39 1213 c-13 -27 35 -193 81 -285 72 -144 171 -252 326 -354 98 -64
266 -148 382 -188 52 -19 56 -11 5 10 -119 50 -265 180 -358 319 -88 132 -131
258 -143 415 l-7 85 -142 0 c-79 0 -144 -1 -144 -2z"/>
</g>
</svg>
